<?xml version="1.0" encoding="utf-8"?>
<!-- Generator: Adobe Illustrator 18.1.1, SVG Export Plug-In . SVG Version: 6.00 Build 0)  -->
<svg version="1.1" id="Layer_1" xmlns="http://www.w3.org/2000/svg" xmlns:xlink="http://www.w3.org/1999/xlink" x="0px" y="0px"
	 viewBox="0 0 1918.1 378.2" enable-background="new 0 0 1918.1 378.2" xml:space="preserve">
<g>
	<polygon fill="#FFFFFF" stroke="#4ABDA2" stroke-miterlimit="10" points="187.7,336.3 71,256.5 71,45.6 187.7,61.7 	"/>
	<polygon fill="#FFFFFF" stroke="#4ABDA2" stroke-miterlimit="10" points="187.7,336.3 396.1,258.7 396.1,45.9 187.7,61.6 	"/>
	<polygon fill="#FFFFFF" stroke="#4ABDA2" stroke-width="0.5" stroke-miterlimit="10" points="261.7,35.4 396.5,45.6 188.1,61.1 
		71.4,45.1 	"/>
	<path fill="#FFFFFF" d="M298.4,294.3"/>
	<polygon fill="#4ABDA2" points="274,304.1 326.9,284.1 326.9,156.6 346.3,152.5 301.1,101.2 250.8,172.5 274,167.6 	"/>
	<line fill="#FFFFFF" stroke="#4ABDA2" stroke-miterlimit="10" x1="187.3" y1="102.1" x2="71" y2="77"/>
	<line fill="#FFFFFF" stroke="#4ABDA2" stroke-miterlimit="10" x1="187.3" y1="142.1" x2="71" y2="108"/>
	<line fill="none" stroke="#4ABDA2" stroke-miterlimit="10" x1="187.3" y1="182.1" x2="71" y2="138.9"/>
	<line fill="#FFFFFF" stroke="#4ABDA2" stroke-miterlimit="10" x1="187.3" y1="222.1" x2="71" y2="169.8"/>
	<line fill="#FFFFFF" stroke="#4ABDA2" stroke-miterlimit="10" x1="187.3" y1="262.1" x2="71" y2="200.8"/>
	<line fill="#FFFFFF" stroke="#4ABDA2" stroke-miterlimit="10" x1="187.3" y1="302.1" x2="71" y2="232.2"/>
	<line fill="#FFFFFF" stroke="#4ABDA2" stroke-miterlimit="10" x1="105.1" y1="50.3" x2="105.1" y2="279.6"/>
	<line fill="#FFFFFF" stroke="#4ABDA2" stroke-miterlimit="10" x1="88" y1="268" x2="88" y2="47.9"/>
	<line fill="#FFFFFF" stroke="#4ABDA2" stroke-miterlimit="10" x1="123.4" y1="52.8" x2="123.4" y2="292.1"/>
	<line fill="#FFFFFF" stroke="#4ABDA2" stroke-miterlimit="10" x1="143.1" y1="55.6" x2="143.1" y2="305.6"/>
	<line fill="#FFFFFF" stroke="#4ABDA2" stroke-miterlimit="10" x1="164.2" y1="58.5" x2="164.2" y2="320.1"/>
	
		<text transform="matrix(1 0 0 1 466.6167 258.6564)" fill="#FFFFFF" font-family="'AktivGrotesk-Bold'" font-size="248.8688" letter-spacing="-2">StartupGrid</text>
	<polygon fill="#4ABDA2" points="143.6,166.4 163.8,173.9 163.8,211 143.6,201.9 	"/>
	<polygon fill="#4ABDA2" points="105.6,219.6 122.9,228.7 122.9,262.8 105.6,252.4 	"/>
	<polygon fill="#4ABDA2" points="88.5,81.3 104.7,84.8 104.7,117.5 88.4,112.6 	"/>
</g>
</svg>
